Coordinates
version=1
nRows=22
nColumns=24
inDegrees=yes

Units are S.I. units (second, meters, Newtons, ...)
Angles are in degrees.

endheader
time	pelvis_tilt	pelvis_list	pelvis_rotation	pelvis_tx	pelvis_ty	pelvis_tz	hip_flexion_r	hip_adduction_r	hip_rotation_r	knee_angle_r	ankle_angle_r	subtalar_angle_r	mtp_angle_r	hip_flexion_l	hip_adduction_l	hip_rotation_l	knee_angle_l	ankle_angle_l	subtalar_angle_l	mtp_angle_l	lumbar_extension	lumbar_bending	lumbar_rotation
      5.69500000	     14.13517346	      7.75729677	      2.51294432	      1.54475978	      0.75901125	     -0.32237972	      7.69665783	    -11.74671633	     -8.80992574	    -65.43615202	     15.08858008	     -9.41852492	      0.00000000	     -5.82570092	     13.55822844	      9.63122331	    -17.98084011	     23.40198854	      1.15532180	      0.00000000	    -35.92834796	     -5.05940091	      1.88826253
      5.70000000	     14.10559908	      7.79869287	      2.91161692	      1.55123937	      0.75938364	     -0.32270333	      8.42238920	    -11.88464439	     -9.37003721	    -64.61492679	     15.78463248	     -8.91750899	      0.00000000	     -6.60073358	     13.47551600	      9.99804726	    -17.59255750	     23.73686057	      1.42468910	      0.00000000	    -35.93617838	     -4.89366878	      1.28403802
      5.70500000	     14.08627100	      7.85574583	      3.32562855	      1.55771552	      0.75970701	     -0.32302221	      9.09715524	    -12.04636810	     -9.95019202	    -63.70441056	     16.41283648	     -8.30175687	      0.00000000	     -7.39446319	     13.38879437	     10.35640769	    -17.19063720	     24.06425853	      1.75092194	      0.00000000	    -35.96085071	     -4.73632801	      0.65299505
      5.71000000	     14.08012653	      7.92619877	      3.73669645	      1.56417851	      0.75997580	     -0.32330252	      9.72706980	    -12.22386977	    -10.53612393	    -62.71295841	     16.98008193	     -7.63292136	      0.00000000	     -8.20232625	     13.29576774	     10.67738777	    -16.78337381	     24.38879100	      2.11509013	      0.00000000	    -36.00708228	     -4.60157577	      0.02127688
      5.71500000	     14.07491221	      8.01304055	      4.16583658	      1.57065517	      0.76018118	     -0.32358395	     10.30989253	    -12.42200106	    -11.14372736	    -61.63173247	     17.51483586	     -6.91998475	      0.00000000	     -9.02156832	     13.19819638	     10.95414060	    -16.35860417	     24.72648035	      2.53397008	      0.00000000	    -36.05803000	     -4.47464377	     -0.62276333
      5.72000000	     14.08144896	      8.11143740	      4.59282504	      1.57712723	      0.76033229	     -0.32382310	     10.84340357	    -12.63272451	    -11.76355490	    -60.46680691	     17.99653754	     -6.16514923	      0.00000000	     -9.85104703	     13.09200697	     11.19336464	    -15.93749222	     25.06131501	      3.00161713	      0.00000000	    -36.12909663	     -4.36927946	     -1.26522217
      5.72500000	     14.10208802	      8.22244666	      5.01315728	      1.58359252	      0.76042976	     -0.32403258	     11.32588763	    -12.85581923	    -12.38826385	    -59.21855728	     18.42806496	     -5.37607775	      0.00000000	    -10.69639711	     12.98037337	     11.38595399	    -15.51057785	     25.39872050	      3.50871426	      0.00000000	    -36.22133888	     -4.27920634	     -1.90679837
      5.73000000	     14.13357760	      8.34467113	      5.42756461	      1.59005620	      0.76047454	     -0.32421334	     11.75772479	    -13.08565125	    -13.01422791	    -57.88460475	     18.81462544	     -4.55855904	      0.00000000	    -11.55343084	     12.86383386	     11.53668571	    -15.08119740	     25.73651389	      4.05074477	      0.00000000	    -36.33210822	     -4.20546993	     -2.54037040
      5.73500000	     14.17014526	      8.47668686	      5.83199478	      1.59651652	      0.76046182	     -0.32435559	     12.14637261	    -13.31919209	    -13.64014688	    -56.46529036	     19.15826652	     -3.71985728	      0.00000000	    -12.41381706	     12.74290293	     11.64876367	    -14.65230464	     26.06815875	      4.62018357	      0.00000000	    -36.45441075	     -4.15053090	     -3.16137175
      5.74000000	     14.21788431	      8.62022130	      6.23182476	      1.60296837	      0.76039573	     -0.32448469	     12.48104678	    -13.55914933	    -14.26729049	    -54.96061343	     19.46698551	     -2.84311048	      0.00000000	    -13.28248766	     12.62072794	     11.72198392	    -14.22857649	     26.40178366	      5.21088601	      0.00000000	    -36.59598914	     -4.10380023	     -3.77411933
      5.74500000	     14.26846189	      8.77157042	      6.61654651	      1.60941408	      0.76027172	     -0.32457317	     12.77488999	    -13.79589544	    -14.88629116	    -53.37127729	     19.73557852	     -1.94180531	      0.00000000	    -14.14936825	     12.49729322	     11.76523078	    -13.81032540	     26.72524404	      5.80742394	      0.00000000	    -36.74689845	     -4.07570705	     -4.36790128
      5.75000000	     14.32551822	      8.93071699	      6.98596633	      1.61585275	      0.76009175	     -0.32462037	     13.02227240	    -14.02724903	    -15.49607524	    -51.69822137	     19.96934582	     -1.00515969	      0.00000000	    -15.01666200	     12.37384043	     11.78491472	    -13.40134824	     27.04635084	      6.40345155	      0.00000000	    -36.91185218	     -4.06508162	     -4.94567959
      5.75500000	     14.38508965	      9.09937089	      7.34413071	      1.62227910	      0.75985480	     -0.32465076	     13.22544811	    -14.25515331	    -16.09152942	    -49.94172419	     20.16960433	     -0.03026899	      0.00000000	    -15.87909281	     12.25536626	     11.78519541	    -13.00496937	     27.36179790	      6.99047115	      0.00000000	    -37.08600610	     -4.06395516	     -5.50501257
      5.76000000	     14.43901711	      9.27442061	      7.68793579	      1.62869859	      0.75955479	     -0.32464313	     13.39408916	    -14.47485109	    -16.67528320	    -48.10499467	     20.33368276	      0.98209114	      0.00000000	    -16.72453979	     12.14103799	     11.76766763	    -12.62755813	     27.66743483	      7.55437871	      0.00000000	    -37.26044864	     -4.07985865	     -6.04710904
      5.76500000	     14.49032006	      9.45510544	      8.01568737	      1.63510827	      0.75919534	     -0.32459852	     13.52441146	    -14.68371175	    -17.24555815	    -46.18998756	     20.46501282	      2.04002900	      0.00000000	    -17.55505588	     12.03163929	     11.74309578	    -12.27133737	     27.96775258	      8.09676980	      0.00000000	    -37.43837283	     -4.11194591	     -6.57502892
      5.77000000	     14.59742731	      9.65991473	      8.31363937	      1.64151683	      0.75883108	     -0.32451672	     13.54938732	    -14.88233619	    -17.76791007	    -44.19521033	     20.57411513	      3.10117180	      0.00000000	    -18.45427188	     11.93665124	     11.72916985	    -11.89917774	     28.25557855	      8.63346442	      0.00000000	    -37.68474424	     -4.16559294	     -7.06981812
      5.77500000	     14.62835149	      9.85845206	      8.62729277	      1.64789906	      0.75834851	     -0.32444742	     13.61319191	    -15.07419969	    -18.28680672	    -42.13579038	     20.63458726	      4.24446223	      0.00000000	    -19.23178896	     11.84842252	     11.70333833	    -11.60714572	     28.53920990	      9.12159433	      0.00000000	    -37.85382029	     -4.21517815	     -7.57190973
      5.78000000	     14.64971082	     10.06284571	      8.92848169	      1.65428461	      0.75780592	     -0.32433812	     13.64348656	    -15.25270963	    -18.78508291	    -40.01500390	     20.66415468	      5.42819136	      0.00000000	    -19.98439454	     11.76756370	     11.68403295	    -11.34599634	     28.82432596	      9.58154309	      0.00000000	    -38.01745753	     -4.28232607	     -8.05873473
      5.78500000	     14.66466403	     10.27093709	      9.22192482	      1.66066869	      0.75721256	     -0.32421255	     13.63528259	    -15.41465721	    -19.25459328	    -37.83790628	     20.65558027	      6.64749714	      0.00000000	    -20.71125954	     11.69215743	     11.66545474	    -11.12417973	     29.10596406	     10.01248947	      0.00000000	    -38.17838401	     -4.35455984	     -8.53181281
      5.79000000	     14.64874048	     10.47709325	      9.51443020	      1.66704183	      0.75654278	     -0.32406533	     13.61883965	    -15.55678636	    -19.68721629	    -35.61787766	     20.62252564	      7.90413280	      0.00000000	    -21.37087218	     11.62208319	     11.66525636	    -10.97425565	     29.41304518	     10.42265713	      0.00000000	    -38.31152979	     -4.43293879	     -8.98810000
      5.79500000	     14.62924580	     10.69096985	      9.80398218	      1.67343108	      0.75583531	     -0.32390655	     13.56190801	    -15.68787288	    -20.08568156	    -33.36939758	     20.55427844	      9.16966179	      0.00000000	    -22.01374974	     11.55719968	     11.66778996	    -10.85484283	     29.71015227	     10.81261366	      0.00000000	    -38.44236665	     -4.51698862	     -9.43530338
      5.80000000	     14.57392390	     10.88934812	     10.08511198	      1.67985006	      0.75505315	     -0.32372824	     13.51129531	    -15.78684550	    -20.43732124	    -31.11160057	     20.44183739	     10.42207252	      0.00000000	    -22.59170289	     11.48736386	     11.66157549	    -10.78693426	     30.03595629	     11.16079439	      0.00000000	    -38.52600278	     -4.59620041	     -9.88189266
